<?xml version="1.0" encoding="utf-8" ?><svg xmlns="http://www.w3.org/2000/svg" xmlns:xlink="http://www.w3.org/1999/xlink" width="1554" height="1590" viewBox="0 0 1554 1590"><path fill="white" transform="matrix(2.00516 0 0 2.00504 0 -0.00012207)" d="M0 0L775 0L775 793L0 793L0 0Z"/><path transform="matrix(2.00516 0 0 2.00504 0 -0.00012207)" d="M390.863 63.2875C423.733 61.3438 462.017 67.0238 489.717 85.6694C501.155 93.3681 512.278 103.326 524.555 108.965C537.048 114.704 552.538 116.307 566.144 120.044C589.44 126.098 610.278 136.933 631.261 148.343C643.385 154.935 646.682 156.791 656.715 166.244C671.873 180.324 684.744 196.681 694.865 214.726C704.465 231.648 711.081 247.548 717.449 265.957C720.178 273.846 722.812 280.249 724.544 288.576C726.914 299.97 727.387 309.505 727.465 320.985C727.547 333.163 724.52 350.732 726.245 362.225C728.133 373.782 730.973 385.163 733.157 396.677C739.165 428.348 741.898 462.122 733.356 493.604C729.667 507.197 723.203 520.471 713.65 530.9C708.774 536.222 703.351 541.102 699.601 547.348C693.072 557.929 689.496 570.299 684.42 581.524C671.038 610.806 648.671 635.056 620.567 650.753C590.565 667.647 555.136 674.341 521.255 677.74C511.231 678.746 497.084 678.681 487.721 680.882C480.448 682.592 470.652 688.418 463.546 691.566C445.456 699.583 412.291 710.184 392.763 704.666C386.964 703.027 381.196 700.981 375.858 698.164C367.61 693.813 335.26 671.555 331.471 664.47C329.082 660.002 328.604 654.306 330.261 649.506C331.886 644.8 335.606 641.288 340.099 639.289C343.761 637.659 348.008 636.914 351.899 638.101C357.687 639.867 362.088 644.66 366.754 648.303C373.799 653.803 383.22 661.206 391.551 664.316C405.321 669.456 423.929 665.821 436.824 659.735C440.028 658.223 444.494 656.207 445.647 652.574C446.664 649.374 445.381 645.82 443.977 642.927C438.778 632.218 428.814 621.788 418.006 616.675C413.397 614.495 408.498 613.181 403.723 611.451C399.358 609.869 395.752 606.999 393.817 602.696C391.642 597.858 392.072 590.615 394.095 585.722C395.886 581.496 399.303 578.168 403.575 576.489C411.364 573.465 423.402 577.182 430.662 580.472C451.224 589.791 467.274 605.966 477.797 625.825C481.069 631.998 483.31 638.015 485.756 644.507C498.923 642.715 512.221 642.305 525.324 640.656C556.84 636.692 594.286 628.81 619.523 608.631C633.286 597.751 643.89 583.389 650.236 567.032C651.975 562.605 653.665 557.75 654.154 552.953C655.508 539.681 650.509 520.977 637.781 514.395C631.351 511.071 623.792 512.751 618.031 505.08C614.545 500.346 612.001 492.971 612.751 487.108C614.67 474.184 627.374 470.821 638.459 472.984C643.702 474.007 647.565 475.568 652.095 478.316C664.703 485.966 674.831 496.435 683.126 508.506C702.72 496.209 703.571 458.944 702.634 437.995C701.823 421.689 698.687 402.562 694.488 387.067C689.724 369.486 685.955 352.006 670.856 340.61C667.84 338.334 665.356 331.951 660.906 330.793C654.394 329.099 648.038 328.695 641.515 327.225C602.463 318.103 570.033 290.527 546.524 258.981C542.166 253.122 535.882 248.192 534.715 240.564C532.217 224.222 550.824 213.464 563.944 223.52C566.842 225.742 568.371 228.427 570.449 231.266C592.793 261.78 621.773 289.788 661.189 293.889C670.791 294.888 685.266 295.474 681.316 280.949C670.41 240.848 645.815 201.232 610.561 178.355C587.783 163.573 562.553 154.596 536.08 150.28C530.543 149.437 524.256 149.954 518.792 151.065C508.802 153.627 503.876 158.296 495.125 163.004C486.169 167.713 476.946 171.537 469.111 178.09C456.079 188.949 446.251 204.467 441.908 220.9C436.668 240.726 434.382 261.584 432.205 281.938C431.68 286.852 431.948 292.003 431.516 296.937C430.624 307.112 421.327 314.83 411.166 313.504C403.793 312.508 397.78 307.099 396.009 299.871C394.962 295.419 395.766 288.658 396.177 283.999C396.896 275.27 397.811 266.559 398.922 257.872C399.536 253.102 402.472 235.339 400.68 232.092C392.344 217.747 364.743 225.031 355.274 210.754C349.921 203.049 351.663 190.587 359.957 185.147C371.757 177.408 390.545 189.24 403.437 190.765C410.087 192.769 415.354 188.019 418.621 182.12C429.484 162.504 442.714 148.634 462.328 137.586C465.532 135.781 481.141 129.39 481.649 126.704C477.37 121.597 464.412 113.352 457.976 110.678C426.867 97.7537 388.782 98.1238 355.923 102.711C349.361 103.737 342.752 104.7 336.449 106.802C326.932 109.976 330.124 121.95 330.122 129.862C330.119 141.429 328.509 149.602 323.681 160.17C317.894 172.837 312.233 182.399 298.691 187.902C281.986 194.689 268.657 174.931 277.884 161.068C281.004 156.379 286.312 153.591 288.533 148.419C292.931 138.176 293.053 123.227 289.182 112.874L288.992 112.381C267.87 111.411 238.243 123.428 220.102 133.772C204.184 142.849 169.739 165.76 164.844 183.923L167.402 186.964C190.98 187.487 206.586 192.264 226.663 204.836C229.484 206.57 232.125 208.581 234.546 210.84C242.241 218.109 256.19 235.714 262.441 244.538C262.966 245.28 263.583 247.977 263.821 249.011C272.312 248.085 277.084 247.285 285.548 248.204C305.504 250.371 322.74 258.643 335.284 274.575C341.33 282.254 348.811 295.223 347.529 305.425C346.808 310.759 343.97 315.578 339.655 318.794C335.675 321.792 330.66 323.073 325.73 322.35C310.568 320.075 312.094 307.51 305.021 298.26C297.356 288.234 281.517 282.246 269.301 286.182C261.699 288.631 256.824 294.556 247.346 293.15C240.101 292.076 235.217 287.791 232.851 280.814C231.836 277.821 231.736 273.601 230.351 270.373C227.577 263.908 223.781 257.059 219.292 251.576C205.422 234.633 192.012 226.634 169.86 223.865C156.816 222.234 141.197 224.003 129.815 231.577C128.003 232.783 122.914 240.743 120.995 243.028C100.834 267.058 86.2153 295.917 77.7596 326.068C76.4186 330.849 70.4964 352.086 73.5247 355.625C75.658 354.925 80.4568 351.415 82.7379 350.187C99.8207 340.982 118.187 334.548 136.774 329.036C146.669 326.102 154.151 322.392 163.343 330.331C172.232 338.007 171.922 351.261 162.121 358.022C155.127 362.846 145.277 363.503 137.353 366.337C116.779 373.288 94.3406 381.862 77.4365 395.813C67.313 408.769 86.4838 428.59 90.0825 440.603C94.9482 456.845 96.8513 471.264 96.5596 487.697C96.4258 495.234 86.3836 504.935 78.969 504.303C57.1127 502.443 60.6573 487.113 59.3952 472.228C58.8461 466.313 57.8134 460.454 56.3077 454.707C53.9151 445.51 50.5666 442.873 47.0328 434.95C39.173 417.33 36.7037 400.449 36.0421 381.361C34.3121 331.448 49.4975 282.36 77.0719 240.927C84.1314 229.39 94.0905 219.086 101.504 207.984C119.413 181.166 135.502 154.543 159.63 132.608C189.652 105.316 228.915 85.3565 268.909 78.1518C285.047 75.2446 302.382 76.1048 318.631 73.675C327.629 72.3245 336.298 70.1629 345.159 68.5188C360.242 65.6355 375.519 63.8869 390.863 63.2875Z"/><path transform="matrix(2.00516 0 0 2.00504 0 -0.00012207)" d="M509.508 281.615C512.805 281.49 516.14 282.113 519.142 283.581C536.704 292.168 527.317 321.843 525.701 336.948C523.199 360.348 523.761 355.924 543.064 361.051C551.798 363.377 560.288 366.54 568.415 370.497C583.029 377.611 596.318 387.87 608.846 398.118C614.799 402.988 623.008 408.086 625.487 415.713C627.046 420.38 626.66 425.477 624.416 429.855C619.782 438.845 609.519 442.397 600.444 437.822C596.141 435.646 592.588 432.113 589.027 428.928C578.313 419.344 566.932 410.084 554.059 403.573C536.503 394.693 513.435 389.963 493.803 392.503C485.744 393.545 472.587 397.869 464.717 400.395C434.565 409.78 399.964 417.384 368.133 410.843C356.836 408.521 345.053 399.802 336.211 392.544C332.072 389.146 328.782 381.319 327.688 376.163C325.194 362.136 337.944 349.887 351.952 354.649C360.741 357.598 361.725 365.08 368.311 370.259C373.713 374.137 381.55 374.109 387.901 374.297C413.496 375.053 438.463 369.054 462.451 360.596C466.835 359.05 473.347 357.015 477.366 354.867C479.294 353.814 481.025 352.437 482.485 350.795C490.354 341.888 492.947 319.978 492.702 308.106C492.559 301.152 491.9 294.641 496.346 288.633C499.846 283.903 503.946 282.416 509.508 281.615Z"/><path transform="matrix(2.00516 0 0 2.00504 0 -0.00012207)" d="M245.408 331.534C247.532 331.447 249.52 331.433 251.618 331.893C255.368 332.714 258.595 334.542 261.296 337.251C274.119 350.11 259.658 370.341 266.435 384.022C274.766 400.843 304.805 405.305 312.17 417.632C314.881 422.17 315.778 427.788 314.351 432.905C313.042 437.601 310.03 441.178 305.804 443.513C301.863 445.69 297.335 446.3 292.936 445.401C284.605 443.697 266.976 431.748 260.006 426.246C255.906 423.01 250.819 417.538 245.631 416.282C240.561 415.055 229.735 425.082 225.126 428.007C210.112 438.27 191.834 445.59 174.765 451.599C169.228 453.548 163.001 454.394 157.599 451.485C146.036 445.724 144.46 427.85 154.969 420.421C160.203 416.721 171.013 414.463 177.452 412.249C200.404 404.358 227.502 386.997 229.512 360.387C230.035 353.454 228.336 346.549 232.48 340.161C235.688 334.997 239.803 332.927 245.408 331.534Z"/><path transform="matrix(2.00516 0 0 2.00504 0 -0.00012207)" d="M395.098 451.251C399.619 451.368 403.219 451.835 407.238 454.254C411.465 456.845 414.493 461.007 415.658 465.827C419.011 479.901 407.089 486.723 397.707 493.364C356.531 522.509 295.563 546.836 248.339 517.231C243.047 513.821 238.013 511.247 234.592 505.728C230.139 499.02 228.241 487.844 234.257 481.526C247.269 467.862 256.886 475.572 267.32 484.493C278.366 493.938 301.46 492.018 315.071 490.246C339.804 487.027 362.302 473.36 381.62 458.187C385.85 454.902 389.634 451.952 395.098 451.251Z"/><path transform="matrix(2.00516 0 0 2.00504 0 -0.00012207)" d="M474.656 444.682C506.61 443.527 536.058 459.368 550.232 488.273C565.043 518.477 558.572 555.899 526.618 571.558C517.44 576.055 510.08 578.069 500.324 574.717C498.722 573.973 496.879 572.943 495.504 571.832C491.617 568.733 489.134 564.205 488.611 559.26C488.258 555.575 488.984 551.867 490.699 548.587C498.004 534.683 510.189 543.523 518.745 532.253C525.933 522.784 518.7 509.835 513.902 501.314C506.711 488.544 494.234 481.198 479.554 481.604C475.014 481.729 469.485 482.699 465.132 482.198C461.78 481.814 458.608 480.477 455.991 478.346C452.521 475.52 449.479 470.19 449.183 465.685C448.829 460.795 450.47 455.97 453.732 452.309C459.804 445.62 466.263 445.197 474.656 444.682Z"/><path transform="matrix(2.00516 0 0 2.00504 0 -0.00012207)" d="M340.638 539.921C356.074 538.656 366.832 554.912 358.031 568.245C352.654 576.39 345.546 575.477 337.508 577.212C316.623 581.634 302.657 605.491 298.797 624.955C296.185 638.126 299.572 652.259 281.18 655.862C276.02 656.212 272.179 655.316 268.075 652.103C258.013 644.228 260.437 634.448 262.071 623.931C265.198 603.805 271.897 586.09 285 570.28C300.564 551.5 316.264 542.24 340.638 539.921Z"/><path transform="matrix(2.00516 0 0 2.00504 0 -0.00012207)" d="M208.64 539.475C213.082 538.847 217.558 539.41 221.568 541.496C226.191 543.901 229.892 547.991 231.364 553.045C232.639 557.426 231.971 561.948 229.785 565.922C224.454 575.618 216.609 574.674 207.496 577.562C199.497 580.098 192.076 584.345 186.746 590.934C171.201 610.148 184.732 626.307 177.283 640.161C174.597 645.157 169.827 648.445 164.495 650.054C159.53 651.086 154.566 650.477 150.206 647.759C145.761 644.986 142.605 640.555 141.436 635.446C140.425 631.059 140.613 626.927 140.329 622.582C139.173 604.941 142.532 589.679 152.177 574.637C165.958 553.142 184.576 544.835 208.64 539.475Z"/></svg>