<?xml version="1.0" encoding="utf-8" ?><svg xmlns="http://www.w3.org/2000/svg" xmlns:xlink="http://www.w3.org/1999/xlink" width="1024" height="1024" viewBox="0 0 1024 1024"><path d="M0 0L368.695 0L426.839 0L609.133 0L650.418 0L1024 0L1024 569.793L1024 616.447L1024 1024L0 1024L0 621.395L0 575.781L0 0Z"/><path fill="#FEFEFE" d="M1024 616.447L1024 1024L0 1024L0 621.395C0.729631 624.203 1.26094 627.516 1.86421 630.393C9.94787 668.95 33.4332 704.056 67.0681 724.867C74.9364 729.735 80.3119 730.713 86.8981 738.182C86.0246 748.683 83.6787 760.8 84.4814 771.311C86.5795 798.781 99.7114 831.097 118.652 851.352C138.947 873.054 169.608 888.277 198.95 891.839C204.66 892.532 210.457 892.871 216.241 893.656C218.874 900.513 221.354 907.428 223.679 914.395C225.818 920.929 229.249 932.594 231.938 938.323C247.027 970.465 277.931 998.775 310.669 1011.52C367.591 1033.68 445.996 1025.44 489.172 979.692C496.489 971.94 502.927 962.557 508.912 953.748C509.821 952.41 513.564 945.736 514.321 945.41C516.595 947.952 519.576 953.626 521.625 956.88C525.802 963.584 530.661 969.838 536.125 975.541C566.313 1007.26 604.46 1022.81 647.966 1023.4C671.71 1023.72 703.029 1019.24 724.633 1009.96C738.756 1003.89 759.205 989.625 770.366 979.037C789.453 960.928 800.118 939.783 807.444 914.864C809.62 907.462 812.532 901.608 812.659 893.573C838.401 893.822 870.9 884.387 891.501 869.582C926.371 844.522 945.718 806.733 945.74 763.622C945.744 755.262 945.313 743.304 945.648 735.12C945.77 732.122 957.478 726.14 960.643 723.81C988.59 703.241 1008.73 676.585 1019 643.279C1021.56 634.96 1022.45 624.979 1024 616.447Z"/><path fill="#FEFEFE" d="M0 0L368.695 0C358.947 2.86996 349.705 4.73717 340.187 8.91744C313.615 20.5884 291.101 41.0628 276.894 66.3587C270.71 77.3714 263.225 98.7623 262.345 111.543C224.469 107.511 191.392 111.989 160.636 137.101C135.128 157.928 120.285 182.847 115.659 215.895C114.297 225.63 116.326 238.486 117.563 248.123C117.951 250.849 122.001 265.941 119.745 267.287C114.667 270.316 106.577 271.711 100.735 273.614C97.0602 274.838 93.4382 276.215 89.8787 277.742C49.4924 295.003 17.2463 336.192 12.2103 380.209C9.39552 404.812 11.3519 429.636 20.8598 452.747C25.098 463.049 30.8148 472.289 35.1251 482.078C23.7048 503.101 13.4372 523.72 6.42614 546.731C3.61124 555.97 2.45869 567.959 0 575.781L0 0Z"/><path fill="#FEFEFE" d="M650.418 0L1024 0L1024 569.793C1023.37 567.532 1022.99 564.938 1022.62 562.618C1019.36 541.755 1011.99 522.001 1001.76 503.562C997.88 496.554 993.72 488.442 991.696 480.608C993.135 474.486 998.11 465.643 1001.09 459.545C1004.47 452.698 1007.31 445.593 1009.58 438.299C1018.84 407.564 1017.91 369.37 1002.27 340.708C980.259 300.354 957.956 282.99 914.73 270.119C915.828 263.445 916.719 256.74 917.399 250.011C918.591 238.359 919.612 216.392 917.426 205.279C913.876 187.23 903.324 164.527 891.575 150.491C865.8 119.695 829.606 107.621 790.145 110.418C783.382 110.897 766.963 114.407 762.546 113.978C758.381 111.485 757.852 96.5195 755.294 90.1422C750.992 79.4197 746.517 70.1114 740.57 60.2137C724.462 33.4052 700.085 15.2674 670.629 5.44024C664.061 3.24898 657.138 1.67993 650.418 0Z"/><path fill="#FEFEFE" d="M426.839 0L609.133 0C602.43 2.02803 594.821 3.33107 588.18 5.30294C560.542 13.5093 535.434 30.4798 521.966 56.4858C520.532 59.2549 516.999 66.9601 513.627 67.2693C510.597 65.0088 504.577 53.5014 501.803 49.0214C489.568 29.2605 469.061 14.2296 447.681 5.72478C442.277 3.57512 432.637 1.33045 426.839 0Z"/><path fill="#FEFEFE" d="M628.78 42.2337C667.594 42.3535 703.849 69.7094 712.963 106.9C716.783 122.488 718.782 146.446 730.687 157.305C746.497 171.725 773.952 157.304 792.523 156.984C799.377 156.863 804.872 157.55 811.508 159.129C862.752 167.331 890.258 215.211 869.706 263.269C867.166 271.21 859.805 281.567 860.686 290.135C863.22 314.775 892.956 310.017 910.06 316.978C921.991 321.833 928.343 325.119 937.553 333.093C950.456 344.169 960.203 358.458 965.809 374.512C968.11 381.24 972.074 400.008 970.938 407.546C967.634 429.458 956.496 451.209 944.178 469.446C940.508 474.879 937.26 475.346 938.607 483.059C940.526 494.557 950.079 502.732 955.753 512.501C971.64 539.857 982.057 566.559 982.619 598.668C983.379 642.152 954.47 686.002 913.044 700.381C906.852 702.53 900.109 703.315 895.749 708.808C887.387 719.084 892.841 730.217 896.229 741.044C898.046 746.872 899.868 753.853 900.398 759.868C902.065 779.711 895.785 799.404 882.939 814.618C867.714 832.476 846.014 843.548 822.62 845.394C810.88 846.85 801.963 845.581 790.442 845.617C783.643 845.638 774.876 850.501 771.929 856.896C769.311 862.578 769.697 869.227 768.919 875.374C768.082 881.983 767.222 892.541 765.58 898.834C761.325 913.741 752.959 929.49 742.581 940.958C701.233 986.646 620.546 991.865 574.054 951.454C554.05 934.066 538.334 901.17 537.221 874.616C536.685 861.844 537.159 847.699 537.117 834.773L537.353 730.359L537.125 407.696L537.109 219.948L537.074 164.942C537.062 151.96 536.523 138.766 538.136 125.877C544.296 76.6641 579.116 44.1709 628.78 42.2337Z"/><path d="M683.028 541.642C697.157 540.778 712.177 547.627 723.397 556.118C754.357 579.551 759.369 631.258 735.616 661.346C722.623 677.804 709.234 686.936 688.122 689.255C683.42 690.13 678.56 689.256 674.457 686.797C669.456 683.791 665.913 678.858 664.662 673.158C661.254 657.928 669.974 650.247 684.321 646.787C708.312 641.002 715.25 607.375 699.459 590.227C696.046 586.521 688.239 583.812 683.383 582.903C659.197 578.374 657.403 546.337 683.028 541.642Z"/><path d="M720.982 414.738C756.421 414.826 793.398 411.021 821.147 437.579C828.904 445.003 852.63 475.144 852.697 485.319C852.681 491.243 850.277 496.912 846.028 501.041C840.767 506.216 834.924 507.555 827.899 507.536C806.372 503.077 803.923 472.754 781.299 460.943C761.335 450.52 717.84 461.196 705.597 452.157C705.333 451.962 705.073 451.76 704.817 451.555C700.348 447.957 697.117 442.695 696.725 436.893C696.34 431.188 698.719 425.42 702.622 421.308C707.853 415.796 713.798 414.936 720.982 414.738Z"/><path d="M623.497 327.115C636.324 326.466 646.517 333.505 647.814 347.033C648.021 353.041 648.055 359.099 648.239 365.112C648.817 384.026 654.574 403.782 631.292 411.023C613.378 414.213 604.119 398.987 605.022 383.269C604.896 377.298 604.996 371.305 604.908 365.335C604.667 349.153 602.625 331.439 623.497 327.115Z"/><path fill="#FEFEFE" d="M393.497 42.2268C397.755 42.139 402.015 42.2644 406.261 42.6026C459.645 47.2133 490.446 96.0687 488.845 146.517C488.649 152.693 488.808 159.386 488.798 165.603L488.768 233.279L488.665 462.809L488.725 728.879L488.834 823.155C488.845 837.001 488.902 850.97 488.822 864.805C488.39 940.245 434.094 984.377 360.189 977.681C313.601 973.505 275.038 939.728 264.76 894.097C262.374 883.157 263.298 862.533 256.684 853.862C247.132 841.339 226.959 846.645 212.378 845.896C189.373 843.709 170.973 836.957 153.798 820.442C132.79 800.241 126.577 774.265 132.002 746.079C133.271 738.084 138.545 728.575 137.951 720.427C136.716 703.481 122.022 702.988 110.233 698.974C98.9532 695.133 86.1681 685.283 77.4704 677.311C53.5628 655.398 39.9884 623.437 42.4007 590.914C44.174 568.932 52.7035 543.767 63.2087 524.346C65.654 519.825 68.9366 515.057 71.7653 510.69C77.1194 502.424 86.582 494.808 87.0178 484.264C87.4181 472.15 78.4056 463.603 72.99 453.803C64.2625 438.254 56.8013 424.878 56.542 406.554C55.8747 359.394 90.5879 318.134 137.592 312.016C149.982 310.404 161.263 312.629 170.451 302.2C183.367 287.539 172.173 277.759 166.396 263.85C163.333 256.046 160.301 242.937 160.043 234.815C159.333 212.476 163.75 198.731 178.469 182.418C197.542 161.279 222.129 153.296 250 158.926C260.102 160.41 270.873 164.428 281.113 163.653C301.493 162.11 303.216 146.878 305.807 131.179C308.992 111.882 315.879 87.7011 328.804 73.1068C344.53 55.3493 369.946 43.6773 393.497 42.2268Z"/><path d="M395.98 659.637C405.11 659.455 414.052 665.261 416.463 674.283C417.458 677.822 417.648 681.613 417.608 685.292C417.39 705.726 419.331 726.076 419.856 746.481C420.19 759.476 420.89 773.581 418.909 786.483C417.282 796.62 413.775 806.364 408.567 815.212C398.539 832.601 369.239 861.601 349.388 866.982C338.38 868.53 330.128 860.161 328.161 849.845C325.514 835.961 337.112 831.755 346.344 825.239C363.177 813.357 378.283 795.662 378.545 774.044C378.736 762.947 378.125 752.057 377.619 740.955L375.961 700.135C375.212 680.993 371.438 663.623 395.98 659.637Z"/><path d="M222.99 415.229C231.285 415.051 241.905 414.696 249.969 416.122C272.386 420.087 294.207 429.627 307.75 448.366C323.249 469.811 327.684 493.188 322.936 518.982C321.04 529.283 321.071 536.822 311.339 543.785C306.202 547.46 301.324 547.782 295.42 546.77C292.377 545.721 288.912 544.317 286.556 542.051C271.049 527.138 286.07 513.928 284.564 497.823C283.569 487.174 276.916 472.584 268.934 465.787C255.445 453.566 239.363 454.662 222.221 456.408C202.748 458.391 189.845 436.806 204.068 421.78C209.593 415.943 215.461 415.45 222.99 415.229Z"/><path d="M396.481 327.147C399.912 327.143 402.962 327.526 406.14 328.896C411.122 331.043 415.223 334.947 417.183 340.046C421.633 351.622 420.572 420.921 418.123 436.435C416.292 448.031 412.675 459.677 408.013 470.46C401.223 486.164 389.983 501.982 373.534 508.556C363.777 509.857 354.411 503.198 352.679 493.528C350.941 482.807 361.13 471.994 367.242 463.465C382.557 442.094 379.721 423.128 378.674 397.953L377.363 365.396C377.161 360.179 376.435 350.267 377.12 345.549C377.617 342.309 378.867 339.231 380.769 336.561C384.916 330.651 389.625 328.452 396.481 327.147Z"/></svg>